<?xml version="1.0" encoding="UTF-8" standalone="no"?>
<!-- Created with Inkscape (http://www.inkscape.org/) -->

<svg
   version="1.1"
   id="svg2"
   width="2056.1833"
   height="631.79181"
   viewBox="0 0 2056.1835 631.79181"
   sodipodi:docname="404image.svg"
   inkscape:version="0.0"
   inkscape:export-filename="damaged-cable-with-short-circuit-404-page-vector-47016637.svg"
   inkscape:export-xdpi="96"
   inkscape:export-ydpi="96"
   xmlns:inkscape="http://www.inkscape.org/namespaces/inkscape"
   xmlns:sodipodi="http://sodipodi.sourceforge.net/DTD/sodipodi-0.dtd"
   xmlns:xlink="http://www.w3.org/1999/xlink"
   xmlns="http://www.w3.org/2000/svg"
   xmlns:svg="http://www.w3.org/2000/svg">
  <defs
     id="defs6">
    <linearGradient
       inkscape:collect="always"
       id="linearGradient12811">
      <stop
         style="stop-color:#fff937;stop-opacity:1;"
         offset="0"
         id="stop12807" />
      <stop
         style="stop-color:#f5b100;stop-opacity:1;"
         offset="1"
         id="stop12809" />
    </linearGradient>
    <linearGradient
       inkscape:collect="always"
       id="linearGradient10625">
      <stop
         style="stop-color:#7582f5;stop-opacity:1;"
         offset="0"
         id="stop10621" />
      <stop
         style="stop-color:#2343bd;stop-opacity:1;"
         offset="1"
         id="stop10623" />
    </linearGradient>
    <linearGradient
       inkscape:collect="always"
       id="linearGradient10617">
      <stop
         style="stop-color:#7582f5;stop-opacity:1;"
         offset="0"
         id="stop10613" />
      <stop
         style="stop-color:#2343bd;stop-opacity:1;"
         offset="1"
         id="stop10615" />
    </linearGradient>
    <linearGradient
       inkscape:collect="always"
       id="linearGradient4519">
      <stop
         style="stop-color:#fff937;stop-opacity:1;"
         offset="0"
         id="stop4515" />
      <stop
         style="stop-color:#f5b100;stop-opacity:1;"
         offset="1"
         id="stop4517" />
    </linearGradient>
    <linearGradient
       inkscape:collect="always"
       id="linearGradient4505">
      <stop
         style="stop-color:#fff937;stop-opacity:1;"
         offset="0"
         id="stop4501" />
      <stop
         style="stop-color:#f5b100;stop-opacity:1;"
         offset="1"
         id="stop4503" />
    </linearGradient>
    <linearGradient
       inkscape:collect="always"
       id="linearGradient4495">
      <stop
         style="stop-color:#f5b100;stop-opacity:1;"
         offset="0"
         id="stop4491" />
      <stop
         style="stop-color:#fff937;stop-opacity:1;"
         offset="1"
         id="stop4493" />
    </linearGradient>
    <linearGradient
       inkscape:collect="always"
       id="linearGradient3330">
      <stop
         style="stop-color:#f5b100;stop-opacity:1;"
         offset="0"
         id="stop3326" />
      <stop
         style="stop-color:#fff937;stop-opacity:1;"
         offset="1"
         id="stop3328" />
    </linearGradient>
    <linearGradient
       inkscape:collect="always"
       id="linearGradient986">
      <stop
         style="stop-color:#f5b100;stop-opacity:1;"
         offset="0.22791676"
         id="stop984" />
      <stop
         style="stop-color:#fff937;stop-opacity:1;"
         offset="0.69166666"
         id="stop982" />
    </linearGradient>
    <linearGradient
       inkscape:collect="always"
       xlink:href="#linearGradient986"
       id="linearGradient988"
       x1="1297.4862"
       y1="341.92401"
       x2="1393.462"
       y2="183.9445"
       gradientUnits="userSpaceOnUse" />
    <linearGradient
       inkscape:collect="always"
       xlink:href="#linearGradient3330"
       id="linearGradient3332"
       x1="608.73547"
       y1="354.53189"
       x2="570.59613"
       y2="207.42081"
       gradientUnits="userSpaceOnUse" />
    <linearGradient
       inkscape:collect="always"
       xlink:href="#linearGradient4495"
       id="linearGradient4497"
       x1="977.55634"
       y1="475.98083"
       x2="975.97772"
       y2="365.21848"
       gradientUnits="userSpaceOnUse" />
    <linearGradient
       inkscape:collect="always"
       xlink:href="#linearGradient4505"
       id="linearGradient4507"
       x1="791.1955"
       y1="342.72034"
       x2="766.10101"
       y2="481.34518"
       gradientUnits="userSpaceOnUse" />
    <linearGradient
       inkscape:collect="always"
       xlink:href="#linearGradient12811"
       id="linearGradient4511"
       gradientUnits="userSpaceOnUse"
       x1="791.1955"
       y1="342.72034"
       x2="766.10101"
       y2="481.34518"
       gradientTransform="translate(385.13872,-0.62726176)" />
    <linearGradient
       inkscape:collect="always"
       xlink:href="#linearGradient4519"
       id="linearGradient4521"
       x1="765.88348"
       y1="648.85858"
       x2="743.13"
       y2="696.76099"
       gradientUnits="userSpaceOnUse" />
    <linearGradient
       inkscape:collect="always"
       xlink:href="#linearGradient10617"
       id="linearGradient10619"
       x1="408.13412"
       y1="551.17047"
       x2="56.929802"
       y2="611.98163"
       gradientUnits="userSpaceOnUse" />
    <linearGradient
       inkscape:collect="always"
       xlink:href="#linearGradient10625"
       id="linearGradient10627"
       x1="1259.8927"
       y1="531.21948"
       x2="2007"
       y2="531.21948"
       gradientUnits="userSpaceOnUse" />
  </defs>
  <sodipodi:namedview
     id="namedview4"
     pagecolor="#ffffff"
     bordercolor="#000000"
     borderopacity="0.25"
     inkscape:showpageshadow="2"
     inkscape:pageopacity="0.0"
     inkscape:pagecheckerboard="0"
     inkscape:deskcolor="#d1d1d1"
     showgrid="false"
     inkscape:zoom="0.35355339"
     inkscape:cx="704.27835"
     inkscape:cy="364.8671"
     inkscape:window-width="1920"
     inkscape:window-height="1009"
     inkscape:window-x="-8"
     inkscape:window-y="-8"
     inkscape:window-maximized="1"
     inkscape:current-layer="layer1"
     showguides="true" />
  <g
     inkscape:groupmode="layer"
     id="layer1"
     inkscape:label="Image 1"
     transform="translate(45.716853,-143.32931)">
    <path
       style="fill:url(#linearGradient988);fill-opacity:1;stroke-width:3.28441"
       d="m 1274.5959,353.77563 52.0627,-84.05307 32.6176,41.7129 61.7853,-168.10615 -68.3715,117.29795 -31.6767,-40.77201 z"
       id="path957" />
    <path
       style="fill:url(#linearGradient3332);fill-opacity:1;stroke-width:3.28441"
       d="m 626.00724,375.7298 -47.6719,-81.54403 50.80821,1.88178 -90.3257,-129.21592 44.53559,103.49819 -61.47165,-3.76357 z"
       id="path1859" />
    <path
       style="fill:none;fill-opacity:1;stroke:url(#linearGradient4497);stroke-width:40;stroke-dasharray:none;stroke-opacity:1"
       d="m 965.51275,300.88226 c 0,0 36.62595,-0.15053 53.74455,50.40225 4.7844,14.12869 5.3225,35.48328 5.3225,35.48328 0,0 -0.2515,52.35219 -25.67156,78.83345 -22.86291,23.8174 -57.14993,14.46237 -57.14993,14.46237 0,0 -25.45044,-4.29135 -39.12076,-31.19084 -25.18289,-50.51616 -14.50424,-154.95924 62.8752,-147.99051 z"
       id="path4412"
       sodipodi:nodetypes="cscsccc" />
    <path
       style="fill:url(#linearGradient4507);fill-opacity:1;stroke:none;stroke-width:40;stroke-dasharray:none;stroke-opacity:1"
       d="m 821.88156,498.09659 0.22177,-51.67253 26.16892,0.44354 v -35.70505 h -26.83423 v -48.78952 h -40.14047 v 48.34598 h -51.00722 l 68.30532,-126.4092 H 753.1327 l -72.96251,138.60658 v 23.50767 h 101.5709 v 52.55962 z"
       id="path4499" />
    <path
       style="fill:url(#linearGradient4511);fill-opacity:1;stroke:none;stroke-width:40;stroke-dasharray:none;stroke-opacity:1"
       d="m 1207.0203,497.46933 0.2218,-51.67253 26.1689,0.44354 v -35.70505 h -26.8343 v -48.78952 h -40.1404 v 48.34598 h -51.0072 l 68.3053,-126.4092 h -45.463 l -72.9625,138.60658 v 23.50767 h 101.5709 v 52.55962 z"
       id="path4509" />
    <path
       style="fill:url(#linearGradient4521);fill-opacity:1;stroke:none;stroke-width:40;stroke-dasharray:none;stroke-opacity:1"
       d="m 822.96743,615.97105 -48.61279,82.17129 -13.17249,-31.67672 -57.39445,55.19904 64.29433,-96.91195 11.29071,31.04946 z"
       id="path4513" />
    <path
       style="display:inline;fill:none;fill-opacity:1;stroke:#3c90ee;stroke-width:6;stroke-linecap:round;stroke-dasharray:none;stroke-opacity:1"
       d="m 1226.924,543.52232 c 0,0 8.9385,4.39083 13.7998,6.1158 4.8612,1.72497 19.2883,6.58625 19.2883,6.58625"
       id="path5249" />
    <path
       style="display:inline;fill:none;fill-opacity:1;stroke:#ecc800;stroke-width:6;stroke-linecap:round;stroke-dasharray:none;stroke-opacity:1"
       d="m 1227.7142,535.10306 c 0,0 15.7331,5.12652 19.2686,7.24784 3.5355,2.12132 18.0312,8.83884 18.0312,8.83884"
       id="path5259" />
    <path
       style="fill:none;fill-opacity:1;stroke:#ee4343;stroke-width:6;stroke-linecap:round;stroke-dasharray:none;stroke-opacity:1"
       d="m 1241.6795,529.4462 27.754,14.67247"
       id="path5261" />
    <path
       style="fill:none;fill-opacity:1;stroke:#3c90ee;stroke-width:6;stroke-linecap:round;stroke-dasharray:none;stroke-opacity:1"
       d="m 648.50531,533.68884 c 0,0 6.01041,-0.97227 12.1092,-0.97227 6.0988,0 27.22361,-2.47487 27.22361,-2.47487"
       id="path5263" />
    <path
       style="fill:none;fill-opacity:1;stroke:#ecc800;stroke-width:6;stroke-linecap:round;stroke-dasharray:none;stroke-opacity:1"
       d="m 677.67346,521.57964 c 0,0 -3.62392,-0.17678 -8.83883,0.97227 -5.21491,1.14905 -11.57888,2.74004 -14.31891,3.00521 -2.74004,0.26516 -10.60661,0.61871 -10.60661,0.61871"
       id="path5265" />
    <path
       style="fill:none;fill-opacity:1;stroke:#ee4343;stroke-width:6;stroke-linecap:round;stroke-dasharray:none;stroke-opacity:1"
       d="m 685.27486,512.12209 c 0,0 -11.57887,0.35355 -17.32412,1.06066 -5.74524,0.7071 -19.53382,3.18198 -24.66034,5.3033"
       id="path5267" />
    <path
       style="fill:none;fill-opacity:1;stroke:url(#linearGradient10627);stroke-width:25;stroke-linecap:butt;stroke-dasharray:none;stroke-opacity:1"
       d="m 1257.943,545.88644 c 0,0 35.8984,26.58282 40.305,49.49747 3.5356,18.38478 -9.1923,68.58936 -10.6065,86.26703 -2.6286,32.85712 10.8353,52.94315 19.7989,59.39697 17.6777,12.72792 40.3106,31.84672 123.7437,14.84924 77.2714,-14.43097 111.7778,-56.41596 144.2498,-127.98633 C 1604.1945,560.13448 1594.0078,502.18571 1586,432 c -4,-36 -18,-98 20,-120 38,-22 85.2188,-7.47304 94.5858,28.62742 10.4208,40.16191 -2.1684,120.96039 -4.9914,161.27207 -3.8174,54.51177 7.3485,112.58539 84.8701,130.6863 C 1890.8939,658.3705 2004,590 2004,590"
       id="path10609"
       sodipodi:nodetypes="cssscccssssc" />
    <path
       style="fill:none;fill-opacity:1;stroke:url(#linearGradient10619);stroke-width:25;stroke-linecap:butt;stroke-dasharray:none;stroke-opacity:1"
       d="m 648.6066,526 c 0,0 -65.19239,10.36396 -94.6066,56 -31.99582,49.64139 -51.53553,93.53553 -59.53553,113.53553 -8,20 -43.37099,62.38126 -75.19239,65.75736 -66.64823,7.07107 -103.99033,-35.47692 -121.81624,-89.7193 C 279.03213,615.51216 246.24264,550.54416 190.22183,525.83705 144.36387,505.61211 30,494 -40,530"
       id="path10611"
       sodipodi:nodetypes="csssssc" />
  </g>
</svg>
