<?xml version="1.0" encoding="UTF-8" standalone="no"?>
<!-- Uploaded to: SVG Repo, www.svgrepo.com, Generator: SVG Repo Mixer Tools -->

<svg
   fill="#ffff"
   version="1.1"
   id="Capa_1"
   width="25"
   height="25"
   viewBox="0 0 902.86 902.86"
   xml:space="preserve"
   sodipodi:docname="cart.svg"
   xmlns:inkscape="http://www.inkscape.org/namespaces/inkscape"
   xmlns:sodipodi="http://sodipodi.sourceforge.net/DTD/sodipodi-0.dtd"
   xmlns="http://www.w3.org/2000/svg"
   xmlns:svg="http://www.w3.org/2000/svg"><defs
   id="defs26"><inkscape:path-effect
     effect="fillet_chamfer"
     id="path-effect6636"
     is_visible="true"
     lpeversion="1"
     nodesatellites_param="F,0,0,1,0,85,0,1 @ F,0,0,1,0,85,0,1 @ F,0,0,1,0,85,0,1 @ F,0,0,1,0,85,0,1"
     unit="px"
     method="auto"
     mode="F"
     radius="85"
     chamfer_steps="1"
     flexible="false"
     use_knot_distance="true"
     apply_no_radius="true"
     apply_with_radius="true"
     only_selected="false"
     hide_knots="false" /><inkscape:path-effect
     effect="fillet_chamfer"
     id="path-effect6630"
     is_visible="true"
     lpeversion="1"
     nodesatellites_param="F,0,0,1,0,85,0,1 @ F,0,0,1,0,85,0,1 @ F,0,0,1,0,85,0,1 @ F,0,0,1,0,85,0,1"
     unit="px"
     method="auto"
     mode="F"
     radius="85"
     chamfer_steps="1"
     flexible="false"
     use_knot_distance="true"
     apply_no_radius="true"
     apply_with_radius="true"
     only_selected="false"
     hide_knots="false" /><inkscape:path-effect
     effect="fillet_chamfer"
     id="path-effect6624"
     is_visible="true"
     lpeversion="1"
     nodesatellites_param="F,0,0,1,0,85,0,1 @ F,0,0,1,0,85,0,1 @ F,0,0,1,0,85,0,1 @ F,0,0,1,0,85,0,1"
     unit="px"
     method="auto"
     mode="F"
     radius="85"
     chamfer_steps="1"
     flexible="false"
     use_knot_distance="true"
     apply_no_radius="true"
     apply_with_radius="true"
     only_selected="false"
     hide_knots="false" /></defs><sodipodi:namedview
   id="namedview24"
   pagecolor="#ffffff"
   bordercolor="#000000"
   borderopacity="0.25"
   inkscape:showpageshadow="2"
   inkscape:pageopacity="0.0"
   inkscape:pagecheckerboard="0"
   inkscape:deskcolor="#d1d1d1"
   showgrid="false" />

<g
   id="g6516"
   style="display:inline"
   sodipodi:insensitive="true"><path
     style="fill:#ffffff;fill-opacity:1;stroke:none;stroke-width:360.621;stroke-linecap:round;stroke-linejoin:round"
     d="m 662.16995,718.80289 v 99.10766 c 0,0 3.26727,13.06915 -15.24736,30.49468 -18.51459,17.42552 -42.47469,16.33642 -42.47469,16.33642 H 88.216721 c 0,0 -15.869194,3.0874 -35.940145,-18.24233 C 34.825054,827.95331 38.118334,809.19781 38.118334,809.19781 V 287.52116 c 0,0 4.356382,-22.871 20.692811,-35.94015 16.336432,-13.06914 37.301516,-12.25232 37.301516,-12.25232 h 88.761269 l 0.27227,378.18833 c 0,0 -2.12096,34.82244 29.67784,69.9744 26.79018,29.61519 62.89526,30.22237 62.89526,30.22237 z"
     id="path387"
     sodipodi:nodetypes="ccsccsccscccscc" /><path
     id="rect4595"
     style="display:inline;fill:#ffffff;fill-opacity:1;stroke:none;stroke-width:360.638;stroke-linecap:round;stroke-linejoin:round;stroke-dasharray:none"
     d="m 279.39285,47.75283 a 53,53 0 0 0 -52.97249,52.97249 v 519.35611 a 53,53 0 0 0 52.97249,52.97249 h 523.94094 a 53,53 0 0 0 53.04303,-52.97249 V 100.72532 A 53,53 0 0 0 803.33379,47.75283 Z m 264.93298,159.41122 a 25.0273,25.0273 0 0 1 24.96972,25.11079 l -0.49375,101.71282 101.36014,0.63483 a 25.0273,25.0273 0 0 1 24.82865,25.18133 25.0273,25.0273 0 0 1 -25.18133,24.89918 l -101.21907,-0.63482 -0.42321,100.79585 a 25.0273,25.0273 0 0 1 -25.1108,24.96973 25.0273,25.0273 0 0 1 -24.96972,-25.18133 l 0.49375,-100.93693 -101.36014,-0.56429 a 25.0273,25.0273 0 0 1 -24.82865,-25.18133 25.0273,25.0273 0 0 1 25.18133,-24.89918 l 101.21907,0.63482 0.42322,-101.64229 a 25.0273,25.0273 0 0 1 25.11079,-24.89918 z" /></g><g
   id="g6696"
   style="display:none"><path
     style="fill:#ffffff;fill-opacity:1;stroke:none;stroke-width:54.5089;stroke-linecap:round;stroke-linejoin:round;stroke-dasharray:none;stroke-opacity:1"
     id="rect6570"
     width="343.94391"
     height="348.68799"
     x="61.714104"
     y="51.087406"
     inkscape:path-effect="#path-effect6624"
     d="m 146.7141,51.087406 h 173.94391 a 85,85 45 0 1 85,85.000004 v 178.68798 a 85,85 135 0 1 -85,85 H 146.7141 a 85,85 45 0 1 -84.999996,-85 V 136.08741 A 85,85 135 0 1 146.7141,51.087406 Z"
     sodipodi:type="rect" /><path
     style="fill:#ffffff;fill-opacity:1;stroke:none;stroke-width:54.5089;stroke-linecap:round;stroke-linejoin:round;stroke-dasharray:none;stroke-opacity:1"
     id="rect6626"
     width="343.94391"
     height="348.68799"
     x="511.51047"
     y="51.087406"
     inkscape:path-effect="#path-effect6630"
     d="m 596.51047,51.087406 h 173.94391 a 85,85 45 0 1 85,85.000004 v 178.68798 a 85,85 135 0 1 -85,85 H 596.51047 a 85,85 45 0 1 -85,-85 V 136.08741 a 85,85 135 0 1 85,-85.000004 z"
     sodipodi:type="rect" /><path
     style="fill:#ffffff;fill-opacity:1;stroke:none;stroke-width:54.5089;stroke-linecap:round;stroke-linejoin:round;stroke-dasharray:none;stroke-opacity:1"
     id="path6632"
     width="343.94391"
     height="348.68799"
     x="62.803207"
     y="499.79468"
     inkscape:path-effect="#path-effect6636"
     d="m 147.80321,499.79468 h 173.94391 a 85,85 45 0 1 85,85 v 178.68799 a 85,85 135 0 1 -85,85 H 147.80321 a 85,85 45 0 1 -85.000003,-85 V 584.79468 a 85,85 135 0 1 85.000003,-85 z"
     sodipodi:type="rect" /><circle
     style="fill:#ffffff;fill-opacity:1;stroke:none;stroke-width:50.0546;stroke-linecap:round;stroke-linejoin:round;stroke-dasharray:none;stroke-opacity:1"
     id="path6690"
     cx="685.04095"
     cy="674.1499"
     r="176.43344" /></g></svg>
