<?xml version="1.0" encoding="UTF-8" standalone="no"?>
<!-- Uploaded to: SVG Repo, www.svgrepo.com, Generator: SVG Repo Mixer Tools -->

<svg
   fill="#ffff"
   version="1.1"
   id="Capa_1"
   width="25"
   height="25"
   viewBox="0 0 902.86 902.86"
   xml:space="preserve"
   sodipodi:docname="cart.svg"
   xmlns:inkscape="http://www.inkscape.org/namespaces/inkscape"
   xmlns:sodipodi="http://sodipodi.sourceforge.net/DTD/sodipodi-0.dtd"
   xmlns="http://www.w3.org/2000/svg"
   xmlns:svg="http://www.w3.org/2000/svg"><defs
   id="defs13" /><sodipodi:namedview
   id="namedview11"
   pagecolor="#ffffff"
   bordercolor="#000000"
   borderopacity="0.25"
   inkscape:showpageshadow="2"
   inkscape:pageopacity="0.0"
   inkscape:pagecheckerboard="0"
   inkscape:deskcolor="#d1d1d1"
   showgrid="false" />
<g
   id="g8"
   style="display:none;fill:#000000;fill-opacity:1;stroke:none;stroke-width:1.0112;stroke-dasharray:none;stroke-opacity:1">
	<g
   id="g6"
   style="fill:#000000;fill-opacity:1;stroke:none;stroke-width:1.0112;stroke-dasharray:none;stroke-opacity:1">
		<path
   d="M 671.504,577.829 781.989,145.22 H 902.86 v -68 H 729.174 L 703.128,179.2 0,178.697 74.753,577.826 h 596.751 z m 14.262,-330.641 -67.077,262.64 H 131.199 L 81.928,246.756 Z"
   id="path2"
   style="fill:#000000;fill-opacity:1;stroke:none;stroke-width:1.0112;stroke-dasharray:none;stroke-opacity:1" />
		<path
   d="m 578.418,825.641 c 59.961,0 108.743,-48.783 108.743,-108.744 0,-59.961 -48.782,-108.742 -108.743,-108.742 H 168.717 c -59.961,0 -108.744,48.781 -108.744,108.742 0,59.961 48.782,108.744 108.744,108.744 59.962,0 108.743,-48.783 108.743,-108.744 0,-14.4 -2.821,-28.152 -7.927,-40.742 h 208.069 c -5.107,12.59 -7.928,26.342 -7.928,40.742 0.001,59.961 48.783,108.744 108.744,108.744 z M 209.46,716.897 c 0,22.467 -18.277,40.744 -40.743,40.744 -22.466,0 -40.744,-18.277 -40.744,-40.744 0,-22.465 18.277,-40.742 40.744,-40.742 22.466,0 40.743,18.277 40.743,40.742 z m 409.702,0 c 0,22.467 -18.277,40.744 -40.743,40.744 -22.466,0 -40.743,-18.277 -40.743,-40.744 0,-22.465 18.277,-40.742 40.743,-40.742 22.466,0 40.743,18.277 40.743,40.742 z"
   id="path4"
   style="fill:#000000;fill-opacity:1;stroke:none;stroke-width:1.0112;stroke-dasharray:none;stroke-opacity:1" />
	</g>
</g>
<g
   style="fill:#ffffff;fill-opacity:1;stroke:none;stroke-width:5.35254;stroke-dasharray:none;stroke-opacity:1"
   id="g159"
   transform="matrix(7.4677108,0,0,8.8370411,-25.369039,-105.59162)"><polygon
     id="_x34_"
     points="37.8,86.9 26.4,86.9 26.4,75.6 23.6,75.6 23.6,89.8 37.8,89.8 "
     style="fill:#ffffff;fill-opacity:1;stroke:none;stroke-width:5.35254;stroke-dasharray:none;stroke-opacity:1" /><polygon
     id="_x34__1_"
     points="108,75.6 108,86.9 96.7,86.9 96.7,89.8 110.9,89.8 110.9,75.6 "
     style="fill:#ffffff;fill-opacity:1;stroke:none;stroke-width:5.35254;stroke-dasharray:none;stroke-opacity:1" /><polygon
     id="_x33_"
     points="26.4,58.5 26.4,47.2 37.8,47.2 37.8,44.3 23.6,44.3 23.6,58.5 "
     style="fill:#ffffff;fill-opacity:1;stroke:none;stroke-width:5.35254;stroke-dasharray:none;stroke-opacity:1" /><polygon
     id="_x32_"
     points="97.4,47.2 108.7,47.2 108.7,58.5 111.6,58.5 111.6,44.3 97.4,44.3 "
     style="fill:#ffffff;fill-opacity:1;stroke:none;stroke-width:5.35254;stroke-dasharray:none;stroke-opacity:1" /><path
     id="_x31_"
     d="m 48.4,67 c 0,10.2 8.2,18.5 18.5,18.5 C 77.2,85.5 85.3,77.3 85.3,67 85.3,56.7 77.1,48.5 66.8,48.5 56.5,48.5 48.4,56.8 48.4,67 Z M 68.3,55.7 c 2.3,0 4,0.6 5.3,1.1 l -1.1,4 c -0.9,-0.4 -2.4,-1 -4.5,-1 -2.1,0 -3.3,1 -3.3,2.1 0,1.4 1.3,2 4.1,3.1 3.8,1.4 5.7,3.4 5.7,6.5 0,3.1 -2,5.7 -6.1,6.5 v 3.3 h -2.8 v -3.1 c -2.4,0 -5,-0.7 -6.1,-1.3 l 1,-4.1 c 1.3,0.7 3.4,1.4 5.5,1.4 2.3,0 3.5,-1 3.5,-2.4 0,-1.4 -1,-2.1 -3.7,-3.1 -3.7,-1.3 -6.1,-3.3 -6.1,-6.5 0,-3.1 2.1,-5.5 5.8,-6.4 v -3.4 h 2.8 c 0,0 0,3.3 0,3.3 z"
     style="fill:#ffffff;fill-opacity:1;stroke:none;stroke-width:5.35254;stroke-dasharray:none;stroke-opacity:1" /><g
     id="g145"
     style="fill:#ffffff;fill-opacity:1;stroke:none;stroke-width:5.35254;stroke-dasharray:none;stroke-opacity:1">
	<path
   d="M 114.2,35.7 V 29.8 H 9.2 V 92.3 H 15 v 5.9 H 120 V 35.7 Z M 12,89.5 V 32.7 h 99.3 v 3 H 15 v 53.8 z m 105.2,5.9 H 17.9 V 38.5 h 99.3 z"
   id="path143"
   style="fill:#ffffff;fill-opacity:1;stroke:none;stroke-width:5.35254;stroke-dasharray:none;stroke-opacity:1" />
</g></g></svg>
